<?xml version="1.0" encoding="utf-8"?>
<!-- Generator: Adobe Illustrator 21.0.2, SVG Export Plug-In . SVG Version: 6.00 Build 0)  -->
<svg version="1.1" id="Layer_1" xmlns="http://www.w3.org/2000/svg" xmlns:xlink="http://www.w3.org/1999/xlink" x="0px" y="0px"
	 viewBox="0 0 183 183" style="enable-background:new 0 0 183 183;" xml:space="preserve">
<style type="text/css">
	.st0{fill:#080357;stroke:#280D44;stroke-miterlimit:10;}
	.st1{fill:#FFC15E;}
</style>
<rect x="0.5" y="0.5" class="st0" width="182" height="182"/>
<polygon class="st1" points="27,156 27,7 7,7 7,156 7,166 7,176 176,176 176,156 "/>
<polygon class="st1" points="54,129 54,27 176,27 176,7 54,7 51,7 34,7 34,149 52,149 54,149 176,149 176,147 176,129 176,93 
	176,87 176,73 105,73 105,93 156,93 156,129 "/>
</svg>
